<svg xmlns="http://www.w3.org/2000/svg" width="154" height="32" viewBox="0 0 154 32" fill="none"><path d="M34.4849 6.17412C34.469 5.86032 34.4201 5.55107 34.3388 5.24636C34.3269 5.20259 34.3144 5.15882 34.3019 5.11561C33.9392 3.91158 33.0768 2.9031 31.8227 2.10894C30.4635 1.24713 28.6438 0.637159 26.5012 0.301758C23.4701 -0.172352 19.7926 -0.0973131 15.8582 0.594523C14.6167 0.812818 13.3495 1.09251 12.0693 1.4353C11.548 1.57514 11.0336 1.72295 10.5276 1.87814C9.61237 2.1584 8.7227 2.4631 7.8626 2.78941C6.93882 3.13959 6.04859 3.51422 5.19758 3.90931C4.95484 4.02243 4.71494 4.1367 4.47846 4.25267L2.40636 16.6068C2.89184 16.3237 3.39551 16.0457 3.9168 15.7745C4.33293 15.558 4.75985 15.3448 5.19758 15.1367C6.04802 14.7314 6.93825 14.3431 7.8626 13.9753C8.72213 13.6325 9.6118 13.3079 10.5276 13.0038C11.4753 12.6889 12.4508 12.3961 13.4507 12.1283C14.2597 11.9117 15.0629 11.7168 15.8582 11.5439C19.6949 10.7094 23.3428 10.3797 26.5012 10.5133C28.4949 10.5969 30.2941 10.8652 31.8227 11.3069C31.9433 11.3416 32.0621 11.378 32.1792 11.4149C32.4651 11.0931 32.7266 10.7697 32.9625 10.4451C33.8914 9.16999 34.4241 7.88409 34.4849 6.65164V6.17412Z" fill="white"></path><path d="M5.5506 21.0966C6.28451 21.1239 7.04342 21.1239 7.8228 21.0966L7.8626 21.0955C8.72725 21.0642 9.61748 20.9994 10.5276 20.8994C12.2455 20.7123 14.0345 20.4014 15.8582 19.9614C16.2237 19.8738 16.5904 19.78 16.9582 19.6817C20.5504 18.7193 23.8015 17.3765 26.5012 15.8291C26.5331 15.8115 26.5643 15.7933 26.5956 15.7745C28.7183 14.5489 30.4953 13.1959 31.8227 11.8026C31.9455 11.6736 32.0643 11.5445 32.1792 11.4149C33.0472 11.6889 33.8204 12.022 34.4849 12.412C35.8197 13.1965 36.7128 14.2107 37.0419 15.4374C37.072 15.5489 37.0971 15.6614 37.1164 15.7745C37.1494 15.957 37.1693 16.1418 37.1761 16.3282C37.1766 16.3516 37.1789 16.4084 37.1784 16.4834C37.1784 16.5715 37.1761 16.6773 37.1761 16.6773C37.1187 18.0956 36.3734 19.6027 35.071 21.0966C34.8868 21.3081 34.6913 21.519 34.4849 21.7299C33.7345 22.4962 32.8409 23.2551 31.8227 23.9924C30.6585 24.8366 29.33 25.6518 27.8656 26.4187C27.4227 26.6501 26.9679 26.8769 26.5012 27.0992C24.0443 28.268 21.2633 29.2963 18.2657 30.0996C17.4568 30.3162 16.6535 30.5112 15.8582 30.684C14.0277 31.0825 12.2399 31.3656 10.5276 31.5378C9.61635 31.6305 8.72611 31.6913 7.8626 31.7209C7.57552 31.7311 7.29128 31.7379 7.01045 31.7408H6.17365C5.84337 31.7368 5.5182 31.7283 5.19758 31.7141C3.2568 31.6316 1.50078 31.3741 0 30.9512L1.72419 20.6737C2.79577 20.8846 3.96001 21.0222 5.19758 21.0818L5.5506 21.0966Z" fill="white"></path><path d="M47.7588 25.5249V7.2422H54.8179C55.8421 7.2422 56.7351 7.4538 57.4969 7.87701C58.2586 8.30022 58.8511 8.87156 59.2743 9.59101C59.6976 10.302 59.9092 11.0892 59.9092 11.9525C59.9092 12.9344 59.6468 13.8104 59.122 14.5807C58.5972 15.3424 57.8947 15.8715 57.0144 16.1677L56.989 15.5456C58.174 15.8842 59.1051 16.4766 59.7822 17.3231C60.4593 18.1695 60.7979 19.1937 60.7979 20.3956C60.7979 21.4536 60.5736 22.3677 60.125 23.138C59.6764 23.8998 59.0458 24.488 58.2332 24.9028C57.4207 25.3175 56.4769 25.5249 55.402 25.5249H47.7588ZM49.6378 23.7347H54.9449C55.6898 23.7347 56.3584 23.6035 56.9509 23.3411C57.5434 23.0703 58.0089 22.6894 58.3475 22.1985C58.6945 21.7075 58.8681 21.115 58.8681 20.421C58.8681 19.7438 58.7115 19.1344 58.3983 18.5927C58.0851 18.051 57.6577 17.6193 57.116 17.2977C56.5827 16.9676 55.9733 16.8025 55.2877 16.8025H49.6378V23.7347ZM49.6378 15.0377H54.8052C55.3893 15.0377 55.9225 14.9065 56.405 14.6441C56.8874 14.3733 57.2683 14.0051 57.5476 13.5396C57.8354 13.074 57.9793 12.5366 57.9793 11.9271C57.9793 11.0638 57.6788 10.3613 57.0779 9.81955C56.4854 9.27784 55.7278 9.00698 54.8052 9.00698H49.6378V15.0377Z" fill="white"></path><path d="M62.062 25.5249V11.8129H63.7379V15.1139L63.4078 14.6822C63.5601 14.276 63.759 13.9035 64.0045 13.565C64.25 13.2179 64.5166 12.9344 64.8044 12.7143C65.1599 12.4011 65.5746 12.1641 66.0486 12.0033C66.5226 11.834 67.0008 11.7367 67.4833 11.7113C67.9658 11.6774 68.4059 11.7113 68.8037 11.8129V13.565C68.3043 13.438 67.7584 13.4084 67.1659 13.4761C66.5734 13.5438 66.0275 13.7808 65.5281 14.1871C65.071 14.5426 64.7282 14.97 64.4997 15.4694C64.2711 15.9603 64.1188 16.4851 64.0426 17.0437C63.9664 17.5939 63.9283 18.1399 63.9283 18.6816V25.5249H62.062Z" fill="white"></path><path d="M70.1965 9.21013V7.11523H72.0629V9.21013H70.1965ZM70.1965 25.5249V11.8129H72.0629V25.5249H70.1965Z" fill="white"></path><path d="M80.0463 32C79.3438 32 78.6497 31.8942 77.9641 31.6826C77.287 31.4795 76.6606 31.1536 76.085 30.705C75.5095 30.2648 75.027 29.6893 74.6377 28.9783L76.3263 28.0388C76.7072 28.8005 77.2404 29.3465 77.926 29.6766C78.6201 30.0151 79.3268 30.1844 80.0463 30.1844C81.0366 30.1844 81.8365 29.9982 82.4459 29.6258C83.0638 29.2618 83.5124 28.7201 83.7917 28.0007C84.071 27.2812 84.2065 26.384 84.198 25.309V21.6525H84.4138V11.8129H86.077V25.3344C86.077 25.7238 86.0643 26.0962 86.039 26.4517C86.022 26.8157 85.9839 27.1712 85.9247 27.5182C85.7639 28.5424 85.4295 29.3846 84.9217 30.0448C84.4223 30.705 83.7621 31.1959 82.9411 31.5175C82.1285 31.8392 81.1636 32 80.0463 32ZM79.9193 25.9058C78.6412 25.9058 77.5494 25.5884 76.6437 24.9536C75.738 24.3103 75.044 23.4427 74.5615 22.3508C74.079 21.2589 73.8378 20.0274 73.8378 18.6562C73.8378 17.2934 74.0748 16.0661 74.5488 14.9743C75.0313 13.8824 75.7211 13.019 76.6183 12.3842C77.5155 11.7494 78.5905 11.432 79.8432 11.432C81.1297 11.432 82.2131 11.7452 83.0934 12.3715C83.9737 12.9979 84.6381 13.857 85.0867 14.9489C85.5438 16.0323 85.7723 17.2681 85.7723 18.6562C85.7723 20.0189 85.548 21.2505 85.0994 22.3508C84.6508 23.4427 83.9906 24.3103 83.1188 24.9536C82.247 25.5884 81.1805 25.9058 79.9193 25.9058ZM80.1098 24.1664C81.0832 24.1664 81.8873 23.9294 82.5221 23.4554C83.1569 22.9814 83.6309 22.3296 83.9441 21.5002C84.2572 20.6622 84.4138 19.7142 84.4138 18.6562C84.4138 17.5812 84.2572 16.6332 83.9441 15.8122C83.6309 14.9827 83.1569 14.3352 82.5221 13.8697C81.8957 13.4041 81.1043 13.1714 80.1479 13.1714C79.166 13.1714 78.3535 13.4126 77.7102 13.8951C77.0669 14.3775 76.5887 15.0335 76.2755 15.863C75.9708 16.6925 75.8184 17.6235 75.8184 18.6562C75.8184 19.6973 75.975 20.6368 76.2882 21.4748C76.6098 22.3043 77.0881 22.9602 77.7229 23.4427C78.3577 23.9251 79.1533 24.1664 80.1098 24.1664Z" fill="white"></path><path d="M98.2603 25.5249V18.5292C98.2603 17.7674 98.1884 17.0691 98.0445 16.4343C97.9006 15.791 97.6679 15.2324 97.3462 14.7584C97.033 14.276 96.6225 13.9035 96.1147 13.6411C95.6153 13.3787 95.0059 13.2476 94.2864 13.2476C93.6262 13.2476 93.0422 13.3618 92.5343 13.5904C92.0349 13.8189 91.6117 14.149 91.2647 14.5807C90.9261 15.0039 90.668 15.5202 90.4902 16.1296C90.3125 16.739 90.2236 17.4331 90.2236 18.2118L88.9032 17.9198C88.9032 16.5147 89.1486 15.334 89.6396 14.3775C90.1305 13.4211 90.8076 12.6974 91.671 12.2065C92.5343 11.7155 93.5246 11.4701 94.6419 11.4701C95.4629 11.4701 96.1782 11.597 96.7876 11.851C97.4055 12.1049 97.926 12.4477 98.3492 12.8794C98.7809 13.311 99.1279 13.8062 99.3903 14.3648C99.6527 14.915 99.8432 15.5033 99.9617 16.1296C100.08 16.7475 100.139 17.3654 100.139 17.9833V25.5249H98.2603ZM88.3445 25.5249V7.2422H90.0331V17.5643H90.2236V25.5249H88.3445Z" fill="white"></path><path d="M109.63 25.5249C108.86 25.6857 108.098 25.7492 107.345 25.7153C106.6 25.6815 105.931 25.5207 105.339 25.2329C104.755 24.9451 104.31 24.4965 104.005 23.8871C103.76 23.3792 103.625 22.8671 103.599 22.3508C103.582 21.826 103.574 21.2293 103.574 20.5606V8.00398H105.427V20.4844C105.427 21.06 105.432 21.5425 105.44 21.9318C105.457 22.3127 105.546 22.6513 105.707 22.9475C106.011 23.5146 106.494 23.8532 107.154 23.9632C107.823 24.0733 108.648 24.0479 109.63 23.8871V25.5249ZM100.641 13.4126V11.8129H109.63V13.4126H100.641Z" fill="white"></path><path d="M111.062 25.5249V7.2422H112.928V15.4821H123.034V7.2422H124.888V25.5249H123.034V17.2723H112.928V25.5249H111.062Z" fill="white"></path><path d="M132.419 25.8677C131.598 25.8677 130.878 25.7407 130.26 25.4868C129.651 25.2329 129.13 24.8901 128.699 24.4584C128.276 24.0267 127.933 23.5358 127.67 22.9856C127.408 22.427 127.218 21.8387 127.099 21.2208C126.981 20.5945 126.921 19.9724 126.921 19.3545V11.8129H128.8V18.8085C128.8 19.5619 128.872 20.2601 129.016 20.9034C129.16 21.5467 129.389 22.1096 129.702 22.592C130.023 23.066 130.434 23.4342 130.933 23.6966C131.441 23.959 132.055 24.0902 132.774 24.0902C133.434 24.0902 134.014 23.9759 134.514 23.7474C135.022 23.5189 135.445 23.193 135.783 22.7698C136.13 22.3381 136.393 21.8176 136.57 21.2081C136.748 20.5903 136.837 19.8962 136.837 19.1259L138.158 19.418C138.158 20.823 137.912 22.0038 137.421 22.9602C136.93 23.9167 136.253 24.6404 135.39 25.1313C134.526 25.6222 133.536 25.8677 132.419 25.8677ZM137.028 25.5249V22.1477H136.837V11.8129H138.703V25.5249H137.028Z" fill="white"></path><path d="M147.14 25.9058C145.879 25.9058 144.812 25.5884 143.941 24.9536C143.069 24.3103 142.409 23.4427 141.96 22.3508C141.511 21.2505 141.287 20.0189 141.287 18.6562C141.287 17.2681 141.511 16.0323 141.96 14.9489C142.417 13.857 143.086 12.9979 143.966 12.3715C144.846 11.7452 145.93 11.432 147.216 11.432C148.469 11.432 149.544 11.7494 150.441 12.3842C151.338 13.019 152.024 13.8824 152.498 14.9743C152.98 16.0661 153.222 17.2934 153.222 18.6562C153.222 20.0274 152.98 21.2589 152.498 22.3508C152.016 23.4427 151.321 24.3103 150.416 24.9536C149.51 25.5884 148.418 25.9058 147.14 25.9058ZM140.97 25.5249V7.2422H142.849V15.2028H142.646V25.5249H140.97ZM146.95 24.1664C147.906 24.1664 148.702 23.9251 149.337 23.4427C149.971 22.9602 150.445 22.3043 150.759 21.4748C151.08 20.6368 151.241 19.6973 151.241 18.6562C151.241 17.6235 151.084 16.6925 150.771 15.863C150.458 15.0335 149.98 14.3775 149.337 13.8951C148.702 13.4126 147.893 13.1714 146.912 13.1714C145.955 13.1714 145.16 13.4041 144.525 13.8697C143.898 14.3352 143.429 14.9827 143.115 15.8122C142.802 16.6332 142.646 17.5812 142.646 18.6562C142.646 19.7142 142.802 20.6622 143.115 21.5002C143.429 22.3296 143.903 22.9814 144.537 23.4554C145.172 23.9294 145.976 24.1664 146.95 24.1664Z" fill="white"></path></svg>